<?xml version="1.0" encoding="utf-8"?>
<!-- Generator: Adobe Illustrator 26.2.1, SVG Export Plug-In . SVG Version: 6.00 Build 0)  -->
<svg version="1.1" id="Layer_1" xmlns="http://www.w3.org/2000/svg" xmlns:xlink="http://www.w3.org/1999/xlink" x="0px" y="0px"
	 viewBox="0 0 2257 2257" style="enable-background:new 0 0 2257 2257;" xml:space="preserve">
<style type="text/css">
	.st0{fill:#FFFFFF;}
</style>
<path class="st0" d="M1464,792.9h-61v-3.6v-57.4h61v57.4V792.9z M1114.5,1134.4H941.7v92.5h78.6L1114.5,1134.4z M1121.7,1137.9
	l-90.9,97.8v167.2h90.9V1137.9z M1236.6,1226.9h162.3v-92.5h-256.5L1236.6,1226.9z M1135.2,1317.8h90.9v-82l-90.9-97.8V1317.8z
	 M858,1029.9v92.5h256.5l-95.9-92.5H858z M1121.7,939.1h-90.9v82l90.9,97.8V939.1z M1142.5,1122.4h172.7v-92.5h-78.6L1142.5,1122.4z
	 M1135.2,1118.9l90.9-97.8V853.9h-90.9V1118.9z M1403,121.9h-61v61h61V121.9z M1525,121.9h-61v61h61V121.9z M1647,121.9h-61v61h61
	V121.9z M1647,243.9h-61v61h61V243.9z M1586,487.9v61l61-24.8v-36.2v-61l-61,24.8V487.9z M854,548.9h61v-61h-61V548.9z M1037,487.9
	h-61v61h61V487.9z M1403,548.9v-61h-61v61H1403z M732,548.9l-61,24.8v36.2h-61h-61h-61h-61l24.8,61H488h61v61h-61l24.8,61H549v61
	h-61v-61l-61,24.8v36.2v61h61h61v61h61v61h-61v61h-61l24.8,61H549v61h-61l24.8,61H549v61h-61l24.8,61H549v61l61-24.8v-36.2v-61h61
	h61v-61v-61v-61l-61,24.8v36.2v61h-61v-61v-61h61v-61v-61h61v61l59.4-24.1l1.6-0.7v-36.2v-61h-1.6H732h-61v-61h61l-24.8-61H671h-61
	v-61h61v-61h61v61h59.4h1.6h61v-3.6v-57.4h-61v-61v-61h-61V548.9z M793,609.9h61v-61h-61V609.9z M1159,609.9v61v61h-61v-61v-61v-61
	l-61,24.8v36.2v61v61h-61l23.3,57.4l1.4,3.6h36.2h61h61h61h61v-3.6v-57.4v-61h61v61l61-24.8v-36.2v-61h-61h-61h-61v-61l-61,24.8
	v36.2H1159z M305,609.9h-61v61h61V609.9z M2074,670.9h61v61v36.2l-61,24.8v-61h-61v61h-61v36.2l-61,24.8v-61h-61v61v61v61v61h61
	h36.2l24.8,61h-61h-61v61h-61v36.2l-61,24.8v-61v-61v-61h61v-61h-61h-61h-61v61h36.2l24.8,61h-61v61v61v61v61h61v61v61h-61v61h61v61
	h61h61v-61h-61h-36.2l-24.8-61h61v-61v-61h61h61v61v61v61h61v61h61v61v61h36.2l24.8,61h-61v61v61v61h-61v36.2l-61,24.8v-61h-61v-61
	h-61v61h-61v61v61v36.2l-61,24.8v-61h-61v-61v-61v-61v-61v-61h61v-61v-61v-61h-61h-36.2l-24.8-61h61v-61v-61v-61h-36.2l-22.8-56.3
	l-1.9-4.7h1.9h59.1v-61v-61H1466h-1.9v-61v-61h1.9h59.1v-61v-61h61v-61h-61v-61v-61v-61h-61v-61v-61v-61v-61v-61h-61h-61v61v61h-61
	v36.2l-61,24.8v-61v-61v-61h61v-61h-61v61h-61v61v61v36.2l-61,24.8v-61h-36.2l-24.8-61h61v-61h-61v61h-61v36.2l-61,24.8v-61v-61v-61
	h-61h-61v61v61v61v36.2l-61,24.8v-61v-61h-61v61v36.2l-61,24.8v-61v-61v-61v-61v-61v-61h61v-36.2l61-24.8v61h61v-61h61h61h61v61
	h36.2l24.8,61h-61v61h61h61v-61v-61v-36.2l61-24.8v61v61h61v-61v-36.2l61-24.8v61h61v61v61h61v-61h61h61v61h36.2l24.8,61h-61v61v61
	v61v61h61h61h61v61h61v-61h61h61h61h61h61v61H2074z M732,243.9h-61v61h61V243.9z M1647,1829.9h61h61h61v-61v-61v-61h-61h-61h-61v61
	v61L1647,1829.9L1647,1829.9z M1708,792.9h-61v-61h-61v61h61v61v61h61v-61V792.9z M1891,670.9h-61v61h61V670.9z M976,670.9v-61v-61
	l-61,24.8v36.2v61v61l61-24.8V670.9z M244,731.9v-61h-61h-61l24.8,61H183v61l61-24.8V731.9z M183,792.9h-61v61h61V792.9z
	 M2013,853.9h61v-61h-61V853.9z M1465.9,853.9h-1.9v61h1.9h59.1l-24.8-61H1465.9z M1891,914.9l24.8,61h36.2h61l-24.8-61H1952H1891z
	 M488,975.9h-61v-61h-61v-61v-61h61l-24.8-61H366h-61v61v61v61h-61h-61h-61l24.8,61H183h61v61l61-24.8v-36.2h61v61h-61v61v61
	l61-24.8v-36.2h61v-61h61h61l-24.8-61H488z M2135,975.9v-61l-61,24.8v36.2v61l61-24.8V975.9z M183,1097.9h61v-61h-61V1097.9z
	 M183,1158.9h-61v61h61V1158.9z M244,1219.9h61v-61h-61V1219.9z M427,1158.9h-61v61v61h-61h-61l24.8,61H305h61h61v-61v-61h61
	l-24.8-61H427z M2074,1219.9v61l61-24.8v-36.2v-61v-61h-61v-61l-61,24.8v36.2v61h61V1219.9z M183,1280.9h-61v61h61V1280.9z
	 M1952,1341.9v-61h61v-61v-61l-61,24.8v36.2h-61h-61h-61l24.8,61h36.2v61h61H1952z M244,1402.9l-61,24.8v36.2h-61l24.8,61H183h61
	v-61V1402.9z M1952,1463.9v61l61-24.8v-36.2v-61l-61,24.8V1463.9z M488,1524.9h61v-61h-61V1524.9z M915,1524.9v61l61-24.8v-36.2h61
	l-24.8-61H976h-61V1524.9z M2135,1463.9v-61v-61l-61,24.8v36.2v61v61l61-24.8V1463.9z M610,1585.9h61l-24.8-61H610h-61l24.8,61H610z
	 M793,1561.1v-36.2h61v-61h-61h-1.6H732h-61l24.8,61H732v61L793,1561.1z M244,1646.9l-24.8-61H183h-61l24.8,61H183H244z M488,1585.9
	h-61v-61v-61h-61v-61l-61,24.8v36.2v61h-61l24.8,61H305v61h61h61h61h61l-24.8-61H488z M671,1646.9h-61v61v61v61h61h61v-61v-61h61
	l-24.8-61H732v-61l-61,24.8V1646.9z M793,1646.9h61v-61h-61V1646.9z M915,1707.9v61h61v-61H915z M1769,1707.9h-61v61h61V1707.9z
	 M915,1829.9l-24.8-61H854v-61l-61,24.8v36.2v61h61H915z M2074,1829.9h61v-61v-61v-61v-61h-61v-61l-61,24.8v36.2v61h61v61v61h-61
	l24.8,61H2074z M793,1890.9v-61h-61v61H793z M1378.2,1890.9H1342v-61h61v61l61-24.8v-36.2v-61h-61h-61h-61v61h-61h-61h-61v-61h61h61
	v-61h61h61h61h61l-24.8-61H1403v-61l-61,24.8v36.2h-61v-61h61v-61h61l-24.8-61H1342h-61h-61h-61h-61v61v61l61-24.8v-36.2h61v61h-61
	v61v61h-61h-61v61h-61v61v61v61h61v61l61-24.8v-36.2v-61h61h61h61v61h61h61L1378.2,1890.9z M2074,1951.9h-61l24.8,61h36.2h61v-61
	v-61l-61,24.8V1951.9z M671,1951.9h-61l24.8,61H671h61l-24.8-61H671z M915,2012.9h-61h-61h-61v61h-61l24.8,61H732h61h61v-61h61v61
	l61-24.8v-36.2h61l-24.8-61H976v-61l-61,24.8V2012.9z M1464,2012.9v-61l-61,24.8v36.2v61l61-24.8V2012.9z M1891,2073.9h-61l24.8,61
	h36.2h61v-61v-61l-61,24.8V2073.9z M1098,2134.9h61v-61h61v-61h61l-24.8-61H1220h-61v61h-61v61h-61l24.8,61H1098z M1464,2134.9h61
	v-61h-61V2134.9z M2074,2134.9h61v-61h-61V2134.9z M186,548.9h-64v-64.1V186v-64.1h64h298.9H549V186v298.9v64h-64.1H186z M186,484.8
	h298.9V186H186V484.8z M2135,121.9V186v298.9v64h-64.1H1772h-64v-64.1V186v-64.1h64h298.9H2135z M2070.9,186H1772v298.9h298.9V186z
	 M484.9,1707.9H549v64.1v298.9v64.1h-64.1H186h-64v-64.1V1772v-64.1h64H484.9z M484.9,1772H186v298.9h298.9V1772z M244,243.9V335
	l93.7,91.9H427v-89.3l-91.9-93.7L244,243.9L244,243.9z M2013,335v-91.1h-91.1l-91.9,93.7v89.3h89.3L2013,335z M427,1919.2v-89.3
	h-89.3l-93.7,91.9v91.1h91.1L427,1919.2z"/>
</svg>
